#!OML:ASF I:\golf\golf\golf 2\Subject 1\2002-09-07\Subject1.ASF
:FULLY-SPECIFIED
:DEGREES
291
root -1.50466 17.9723 -2.08328 70.337 27.1686 23.976
lowerback 38.0044 9.01119 14.1685
upperback 11.3472 16.8338 10.2616
thorax -4.95559 7.67663 -2.03109
lowerneck -13.9064 -15.8022 19.9779
upperneck -6.87471 -25.2037 -6.93078
head -3.2409 -13.3338 -4.55124
rclavicle -1.11319e-013 7.95139e-014
rhumerus 23.9705 -19.6304 -24.7736
rradius 26.2779
rwrist -12.8446
rhand -21.6988 6.14563
rfingers 7.12502
rthumb 4.69961 -23.7822
lclavicle -1.11319e-013 7.95139e-014
lhumerus -42.5079 -60.2667 114.334
lradius 64.1471
lwrist 32.077
lhand -28.9768 30.0819
lfingers 7.12502
lthumb -2.32932 60.0489
rfemur -78.522 -12.5968 9.83391
rtibia 27.9126
rfoot -3.53403 -15.3798
rtoes 20.3851
lfemur -24.2064 -0.664364 -7.56466
ltibia 31.4192
lfoot 13.7127 -6.7918
ltoes -14.4604
292
root -1.50052 17.9803 -2.09551 69.9626 27.27 23.8971
lowerback 37.8886 8.88767 14.0814
upperback 11.3601 16.6333 10.1489
thorax -4.90601 7.6017 -2.03153
lowerneck -14.0693 -15.6999 19.73
upperneck -6.70162 -25.0101 -6.69873
head -3.08039 -13.228 -4.50992
rclavicle -1.30403e-013 -2.70347e-014
rhumerus 23.5792 -19.0087 -25.6059
rradius 26.3921
rwrist -12.8345
rhand -21.6659 6.57092
rfingers 7.12502
rthumb 4.73142 -23.3562
lclavicle -1.30403e-013 -2.70347e-014
lhumerus -41.8502 -59.6388 113.582
lradius 64.0961
lwrist 31.1331
lhand -28.7754 30.119
lfingers 7.12502
lthumb -2.13477 60.0881
rfemur -78.1987 -12.4915 9.80231
rtibia 28.0011
rfoot -3.74923 -15.5035
rtoes 21.0928
lfemur -24.3872 -0.648157 -7.72679
ltibia 31.49
lfoot 13.8741 -6.69928
ltoes -13.8208
293
root -1.49729 17.9857 -2.11057 69.5693 27.3384 23.8141
lowerback 37.7937 8.78028 13.924
upperback 11.3599 16.4358 10.0422
thorax -4.8994 7.52325 -2.00352
lowerneck -14.3605 -15.584 19.5191
upperneck -6.38424 -24.842 -6.65278
head -2.88791 -13.1324 -4.53997
rclavicle 6.36111e-014 -6.36111e-014
rhumerus 23.2959 -18.66 -26.6912
rradius 26.4409
rwrist -12.3906
rhand -21.3664 6.90339
rfingers 7.12502
rthumb 5.02056 -23.0171
lclavicle 6.36111e-014 -6.36111e-014
lhumerus -41.0281 -58.9079 112.678
lradius 63.9811
lwrist 30.54
lhand -28.1829 29.7956
lfingers 7.12502
lthumb -1.56255 59.7696
rfemur -77.8423 -12.3507 9.71327
rtibia 28.07
rfoot -4.04378 -15.6377
rtoes 21.6946
lfemur -24.5892 -0.683571 -7.9176
ltibia 31.5447
lfoot 13.9284 -6.76229
ltoes -13.9646
294
root -1.49385 17.9931 -2.12583 69.15 27.3657 23.738
lowerback 37.7062 8.66679 13.7279
upperback 11.3608 16.2172 9.91688
thorax -4.90018 7.43505 -1.97238
lowerneck -14.7686 -15.4294 19.4487
upperneck -5.89652 -24.6781 -6.85685
head -2.67373 -13.0373 -4.67065
rclavicle 5.08889e-014 -3.65764e-014
rhumerus 23.0463 -18.4192 -27.9059
rradius 26.5084
rwrist -11.8637
rhand -21.0081 7.13566
rfingers 7.12502
rthumb 5.36652 -22.7764
lclavicle 5.08889e-014 -3.65764e-014
lhumerus -40.1874 -58.1242 111.683
lradius 63.9822
lwrist 29.9307
lhand -27.4647 29.6302
lfingers 7.12502
lthumb -0.868871 59.6082
rfemur -77.4462 -12.2066 9.58846
rtibia 28.1208
rfoot -4.08134 -15.7507
rtoes 21.5068
lfemur -24.8228 -0.771145 -8.17353
ltibia 31.5971
lfoot 14.0476 -6.87772
ltoes -14.2266
295
root -1.49014 18.0013 -2.14183 68.71 27.4377 23.6385
lowerback 37.5945 8.54154 13.5796
upperback 11.3872 15.9943 9.80438
thorax -4.85529 7.34938 -1.93983
lowerneck -14.9003 -15.2666 19.3961
upperneck -5.79577 -24.4558 -6.89535
head -2.59408 -12.9254 -4.71382
rclavicle 2.22639e-014 5.40694e-014
rhumerus 22.7852 -18.1846 -29.1138
rradius 26.6211
rwrist -11.3813
rhand -20.7609 7.44301
rfingers 7.12502
rthumb 5.60516 -22.4629
lclavicle 2.22639e-014 5.40694e-014
lhumerus -39.282 -57.3084 110.68
lradius 63.9705
lwrist 28.9932
lhand -26.8075 29.3927
lfingers 7.12502
lthumb -0.234137 59.3724
rfemur -77.071 -12.1123 9.62479
rtibia 28.1564
rfoot -3.99776 -15.7937
rtoes 21.3381
lfemur -25.0812 -0.881515 -8.38775
ltibia 31.6548
lfoot 14.0851 -7.02717
ltoes -14.3789
296
root -1.48492 18.0059 -2.16023 68.2688 27.5517 23.512
lowerback 37.4675 8.41339 13.4768
upperback 11.4016 15.7848 9.70418
thorax -4.809 7.26894 -1.91763
lowerneck -14.7269 -15.1592 19.1936
upperneck -6.00692 -24.212 -6.60464
head -2.5959 -12.8039 -4.60726
rclavicle -6.99722e-014 -2.38542e-014
rhumerus 22.5092 -17.9648 -30.3055
rradius 26.7412
rwrist -10.9067
rhand -20.3751 7.83202
rfingers 7.12502
rthumb 5.97764 -22.0637
lclavicle -6.99722e-014 -2.38542e-014
lhumerus -38.3702 -56.4775 109.735
lradius 63.8997
lwrist 27.8133
lhand -26.1201 29.1328
lfingers 7.12502
lthumb 0.429707 59.1121
rfemur -76.7385 -12.0569 9.77091
rtibia 28.1816
rfoot -3.96059 -15.7776
rtoes 21.6262
lfemur -25.3548 -1.02276 -8.54308
ltibia 31.7171
lfoot 14.1313 -6.99791
ltoes -13.8952
297
root -1.47936 18.0101 -2.17783 67.8449 27.7116 23.3711
lowerback 37.3434 8.28304 13.4381
upperback 11.3762 15.6001 9.5987
thorax -4.78769 7.19624 -1.94022
lowerneck -14.579 -15.0879 18.8638
upperneck -6.16309 -23.9864 -6.15183
head -2.54678 -12.6848 -4.44747
rclavicle -9.85972e-014 1.74931e-014
rhumerus 22.0744 -17.6846 -31.354
rradius 26.9911
rwrist -10.6644
rhand -19.9921 8.02573
rfingers 7.12502
rthumb 6.3474 -21.8592
lclavicle -9.85972e-014 1.74931e-014
lhumerus -37.3212 -55.5059 108.644
lradius 63.738
lwrist 26.8295
lhand -25.0707 28.2361
lfingers 7.12502
lthumb 1.44333 58.2109
rfemur -76.4145 -11.9951 9.94097
rtibia 28.1901
rfoot -4.09273 -15.8271
rtoes 22.5624
lfemur -25.7003 -0.932912 -8.6891
ltibia 31.7583
lfoot 14.4326 -6.98175
ltoes -12.3454
298
root -1.4746 18.0174 -2.19443 67.3955 27.9807 23.1716
lowerback 37.2027 8.1407 13.5027
upperback 11.3619 15.4351 9.52649
thorax -4.72999 7.13507 -1.9753
lowerneck -14.5365 -15.017 18.3846
upperneck -6.30802 -23.7474 -5.5291
head -2.44241 -12.5576 -4.23779
rclavicle -9.85972e-014 6.67916e-014
rhumerus 21.6364 -17.4167 -32.34
rradius 27.2702
rwrist -10.5636
rhand -19.613 8.10199
rfingers 7.12502
rthumb 6.71343 -21.7716
lclavicle -9.85972e-014 6.67916e-014
lhumerus -36.2997 -54.6365 107.674
lradius 63.6724
lwrist 25.1514
lhand -23.9853 28.4063
lfingers 7.12502
lthumb 2.49154 58.3715
rfemur -76.1022 -11.9549 10.3404
rtibia 28.201
rfoot -4.24173 -15.7849
rtoes 22.906
lfemur -26.1279 -0.370818 -8.80166
ltibia 31.7794
lfoot 14.7087 -7.6016
ltoes -11.2779
299
root -1.46956 18.0262 -2.21277 66.912 28.2086 22.9821
lowerback 37.0804 7.99312 13.5073
upperback 11.3477 15.2479 9.45768
thorax -4.69742 7.06142 -1.97836
lowerneck -14.8117 -14.9537 17.864
upperneck -5.94597 -23.5663 -5.06566
head -2.1578 -12.4379 -4.11974
rclavicle 2.06736e-013 -6.36111e-014
rhumerus 21.2506 -17.0135 -33.2987
rradius 27.4902
rwrist -10.6357
rhand -19.2242 8.18102
rfingers 7.12502
rthumb 7.08877 -21.6803
lclavicle 2.06736e-013 -6.36111e-014
lhumerus -34.8978 -53.3781 106.347
lradius 63.3141
lwrist 24.4291
lhand -22.2076 26.4934
lfingers 7.12502
lthumb 4.20828 56.4316
rfemur -75.7625 -11.938 10.7399
rtibia 28.2174
rfoot -4.64128 -15.7172
rtoes 24.3554
lfemur -26.4729 -1.04487 -8.78655
ltibia 31.7755
lfoot 14.4559 -7.42133
ltoes -11.8335
300
root -1.46423 18.0305 -2.23491 66.4507 28.2634 22.8415
lowerback 37.0144 7.88194 13.3241
upperback 11.2822 15.0527 9.33825
thorax -4.77584 6.97301 -1.96453
lowerneck -15.4009 -14.8682 17.6325
upperneck -5.13814 -23.4838 -5.14543
head -1.79756 -12.3599 -4.22372
rclavicle 3.81667e-014 -5.40694e-014
rhumerus 20.8395 -16.6941 -34.3949
rradius 27.7476
rwrist -10.6129
rhand -18.9359 8.26049
rfingers 7.12502
rthumb 7.36698 -21.5912
lclavicle 3.81667e-014 -5.40694e-014
lhumerus -34.1777 -52.545 105.679
lradius 63.3586
lwrist 21.9823
lhand -21.498 27.4866
lfingers 7.12502
lthumb 4.89352 57.4101
rfemur -75.4016 -11.8439 10.772
rtibia 28.2355
rfoot -4.16928 -15.6278
rtoes 22.9417
lfemur -26.84 -1.43056 -9.02708
ltibia 31.7678
lfoot 14.138 -7.51294
ltoes -12.4089
301
root -1.45861 18.0321 -2.25752 66.062 28.2884 22.7121
lowerback 36.8805 7.78921 13.0827
upperback 11.202 14.8509 9.20842
thorax -4.8586 6.88156 -1.92862
lowerneck -15.7283 -14.7459 17.6007
upperneck -4.77076 -23.3595 -5.33737
head -1.64216 -12.2866 -4.33099
rclavicle 6.99722e-014 -7.15625e-014
rhumerus 20.4579 -16.603 -35.6417
rradius 28.0811
rwrist -10.3577
rhand -18.3902 8.20858
rfingers 7.12502
rthumb 7.89376 -21.624
lclavicle 6.99722e-014 -7.15625e-014
lhumerus -33.0401 -51.2818 104.58
lradius 63.1286
lwrist 21.0014
lhand -20.056 26.1205
lfingers 7.12502
lthumb 6.28574 56.0072
rfemur -75.1094 -11.7452 10.7322
rtibia 28.2661
rfoot -4.52015 -15.6614
rtoes 24.663
lfemur -27.2956 -1.58953 -9.33334
ltibia 31.7388
lfoot 13.9191 -7.60146
ltoes -12.1318
302
root -1.4532 18.0353 -2.27826 65.7092 28.3815 22.5853
lowerback 36.6249 7.68242 12.8715
upperback 11.1606 14.6233 9.11188
thorax -4.85819 6.78729 -1.84579
lowerneck -15.6803 -14.6117 17.5074
upperneck -4.89802 -23.1408 -5.2689
head -1.64613 -12.1806 -4.30464
rclavicle -6.67916e-014 2.38542e-014
rhumerus 20.0516 -16.3292 -36.6516
rradius 28.4424
rwrist -10.498
rhand -17.6413 8.03358
rfingers 7.12502
rthumb 8.61654 -21.7706
lclavicle -6.67916e-014 2.38542e-014
lhumerus -32.0385 -50.141 103.671
lradius 63.1283
lwrist 19.398
lhand -18.8524 26.1101
lfingers 7.12502
lthumb 7.44762 55.959
rfemur -74.9174 -11.7601 10.9872
rtibia 28.3352
rfoot -4.70524 -15.5411
rtoes 24.9657
lfemur -27.8287 -1.51757 -9.62718
ltibia 31.6929
lfoot 13.7608 -7.67995
ltoes -11.0363
303
root -1.44852 18.0396 -2.29821 65.3549 28.4043 22.4765
lowerback 36.3175 7.61276 12.5593
upperback 11.163 14.3947 9.02674
thorax -4.8173 6.69667 -1.69694
lowerneck -15.6552 -14.4753 17.3099
upperneck -4.98433 -22.8974 -5.0908
head -1.60809 -12.0565 -4.24335
rclavicle 4.13472e-014 -1.04958e-013
rhumerus 19.574 -15.8253 -37.3921
rradius 28.8024
rwrist -11.0256
rhand -17.1563 7.8839
rfingers 7.12502
rthumb 9.08452 -21.9005
lclavicle 4.13472e-014 -1.04958e-013
lhumerus -30.9136 -48.834 102.674
lradius 62.9862
lwrist 17.9136
lhand -17.3571 25.3938
lfingers 7.12502
lthumb 8.89074 55.1865
rfemur -74.742 -11.8153 11.2605
rtibia 28.4085
rfoot -4.55834 -15.2722
rtoes 24.0386
lfemur -28.3636 -1.43161 -10.0099
ltibia 31.6246
lfoot 13.4324 -7.83137
ltoes -10.6536
